<?xml version="1.0" encoding="utf-8"?>
<!-- Generator: Adobe Illustrator 24.0.2, SVG Export Plug-In . SVG Version: 6.00 Build 0)  -->
<svg version="1.1" id="Layer_1" xmlns="http://www.w3.org/2000/svg" xmlns:xlink="http://www.w3.org/1999/xlink" x="0px" y="0px"
	 viewBox="0 0 845 166" style="enable-background:new 0 0 845 166;" xml:space="preserve">
<style type="text/css">
	.st0{fill:none;stroke:#FFFFFF;stroke-miterlimit:10;}
	.st1{fill:none;stroke:#000000;stroke-miterlimit:10;}
	.st2{fill:#FFFFFF;}
	.st3{font-family:'Poppins-ExtraLight';}
	.st4{font-size:73.101px;}
	.st5{letter-spacing:7;}
	.st6{font-family:'Poppins-Medium';}
</style>
<g>
	<path class="st0" d="M16.94,45.92C33.53,11.55,44.2,6.81,74.42,11.55c10.79,1.69,37.45,6.09,49.19,25.48l11.85,13.63
		c7.46,10.86,6.53-1.19,51.56-2.37c22.52-0.59,10.07,22.52,20.15,41.48c11.28,21.23,0.2,37.33-23.7,37.33
		c-7.84,0-14.81,7.7-14.81,7.7c-12.9-3.93-39.11-25.48-55.11-28.44c0,0-19.56-4.15-39.7,3.56c-22.32,8.53-53.93-7.7-62.22-39.7
		C9.38,61.62,13.92,53.7,16.94,45.92"/>
	<path class="st0" d="M17.17,47.2c16.1-33.7,27.51-38.45,57.58-34.51c10.91,1.43,37.45,5.97,49.19,25.35l12,13.49
		c1.42,2.07,2.83,3.51,4.04,4.06c4.27,2.18,8.44-1.7,25.2-4.41c5.4-0.79,13.15-1.83,22.18-2.05c22.54-0.53,11.18,22.24,20.57,41.48
		c10.51,21.43-0.01,37.8-23.92,37.8c-7.84,0-14.84,7-15.29,6.74c-0.14-0.04-0.32-0.11-0.47-0.16c-9.11-3.1-23.16-15.24-37.34-20.93
		c-5.99-3.32-13.21-4.96-17.97-5.84c-0.75,0.48-19-4-38.86,2.58c-25.5,8.45-52.32-7.75-60.83-39.2
		C10.92,63.05,14.16,54.98,17.17,47.2"/>
	<path class="st0" d="M17.41,48.47c15.61-33.04,27.77-37.8,57.69-34.64c11.03,1.17,37.45,5.84,49.19,25.23l12.14,13.35
		c1.31,1.91,2.96,3.53,4.07,4.03c4.81,2.65,8.46-1.22,25.07-4.15c4.98-0.73,13.24-2.12,22.13-2.32
		c22.56-0.46,12.28,21.97,20.99,41.48c9.75,21.63-0.22,38.26-24.13,38.26c-7.84,0-14.87,6.3-15.77,5.77
		c-0.13-0.04-0.34-0.13-0.47-0.17c-9.4-3.3-22.86-17.01-37.79-20.94c-5.53-3.07-13.79-3.48-18.18-4.3
		c-1.51,0.96-18.53-4.03-38.01,1.61c-28.78,8.33-50.64-7.81-59.43-38.69C12.48,64.48,14.4,56.26,17.41,48.47"/>
	<path class="st0" d="M17.65,49.75c15.11-32.37,28.04-37.17,57.79-34.78c11.14,0.9,37.45,5.71,49.19,25.1l12.29,13.21
		c1.2,1.75,3.09,3.55,4.1,4.01c5.34,3.12,8.48-0.74,24.93-3.89c4.57-0.67,13.33-2.41,22.08-2.58c22.58-0.4,13.34,21.71,21.42,41.48
		c8.93,21.85-0.43,38.73-24.34,38.73c-7.84,0-14.9,5.6-16.25,4.81c-0.12-0.04-0.36-0.15-0.48-0.19c-9.7-3.5-22.56-18.79-38.23-20.96
		c-5.07-2.81-14.37-2.01-18.4-2.75c-2.26,1.45-18.13-4.19-37.16,0.63c-32.11,8.14-49.01-7.86-58.03-38.18
		C14.03,65.91,14.63,57.54,17.65,49.75"/>
	<path class="st0" d="M17.88,51.03c14.62-31.7,28.3-36.55,57.89-34.91c11.26,0.62,37.45,5.59,49.19,24.97l12.44,13.07
		c1.09,1.59,3.21,3.56,4.14,3.99c5.88,3.59,8.5-0.25,24.8-3.63c4.15-0.61,13.41-2.7,22.03-2.84c22.6-0.33,14.43,21.44,21.84,41.48
		c8.15,22.06-0.64,39.2-24.55,39.2c-7.84,0-14.92,4.9-16.73,3.84c-0.11-0.03-0.38-0.16-0.49-0.2c-9.99-3.7-22.26-20.56-38.68-20.97
		c-4.61-2.55-14.95-0.53-18.61-1.21c-3.01,1.93-17.76-4.45-36.32-0.34c-35.49,7.86-47.38-7.91-56.64-37.67
		C15.58,67.35,14.87,58.82,17.88,51.03"/>
	<path class="st0" d="M18.12,52.31c14.13-31.04,28.57-35.94,57.99-35.05c11.38,0.34,37.45,5.46,49.19,24.85l12.58,12.92
		c0.98,1.43,3.34,3.58,4.17,3.96c6.42,4.06,8.52,0.23,24.67-3.37c3.74-0.55,13.5-2.99,21.98-3.11
		c22.62-0.27,15.53,21.17,22.26,41.48c7.38,22.26-0.86,39.66-24.76,39.66c-7.84,0-14.95,4.2-17.2,2.88
		c-0.1-0.03-0.39-0.18-0.49-0.21c-10.28-3.9-21.97-22.34-39.12-20.99c-4.15-2.3-15.53,0.94-18.82,0.33
		c-3.76,2.41-17.41-4.79-35.47-1.31c-38.91,7.5-45.76-7.96-55.24-37.16C17.13,68.78,15.11,60.1,18.12,52.31"/>
	<path class="st0" d="M18.36,53.59C31.99,23.22,47.2,18.8,76.45,18.4c11.5-0.16,37.45,5.33,49.19,24.72l12.73,12.78
		c0.87,1.27,3.46,3.6,4.2,3.94c6.96,4.53,8.54,0.71,24.54-3.11c3.32-0.49,13.58-3.28,21.93-3.37c22.64-0.21,16.63,20.89,22.69,41.48
		c6.61,22.46-1.07,40.13-24.97,40.13c-7.84,0-14.98,3.5-17.68,1.91c-0.09-0.03-0.41-0.2-0.5-0.23c-10.57-4.1-21.67-24.11-39.57-21
		c-3.69-2.04-16.11,2.42-19.04,1.88c-4.52,2.89-17.08-5.2-34.62-2.29c-42.36,7.03-44.14-8-53.84-36.66
		C18.67,70.21,15.34,61.38,18.36,53.59"/>
	<path class="st0" d="M18.59,54.87c13.14-29.7,29.11-34.75,58.2-35.32c11.62-0.23,37.45,5.21,49.19,24.59l12.87,12.64
		c0.77,1.11,3.59,3.62,4.24,3.92c7.49,5,8.56,1.19,24.41-2.85c2.91-0.43,13.67-3.57,21.89-3.64c22.66-0.14,17.73,20.62,23.11,41.48
		c5.84,22.65-1.28,40.59-25.19,40.59c-7.84,0-15,2.79-18.16,0.95c-0.08-0.02-0.43-0.21-0.51-0.24
		c-10.86-4.31-21.37-25.89-40.01-21.02c-3.23-1.79-16.69,3.89-19.25,3.42c-5.27,3.37-16.76-5.65-33.78-3.26
		c-45.82,6.44-42.53-8.05-52.44-36.15C20.22,71.65,15.58,62.66,18.59,54.87"/>
	<path class="st0" d="M18.83,56.15c12.65-29.04,29.38-34.18,58.3-35.46c11.74-0.52,37.45,5.08,49.19,24.47l13.02,12.5
		c0.66,0.95,3.72,3.64,4.27,3.89c8.03,5.47,8.58,1.67,24.28-2.59c2.49-0.37,13.76-3.85,21.84-3.9
		c22.68-0.08,18.84,20.34,23.53,41.48c5.08,22.85-1.49,41.06-25.4,41.06c-7.84,0-15.03,2.09-18.64-0.02
		c-0.06-0.02-0.45-0.23-0.52-0.25c-11.15-4.51-21.07-27.66-40.45-21.03c-2.77-1.53-17.26,5.37-19.46,4.96
		c-6.02,3.86-16.44-6.14-32.93-4.23c-49.3,5.71-40.93-8.09-51.05-35.64C21.76,73.08,15.81,63.94,18.83,56.15"/>
	<path class="st0" d="M19.07,57.43c12.16-28.37,29.65-33.62,58.4-35.59c11.86-0.82,37.45,4.95,49.19,24.34l13.17,12.36
		c0.55,0.8,3.84,3.66,4.3,3.87c8.57,5.94,8.6,2.15,24.15-2.33c2.08-0.31,13.84-4.14,21.79-4.17c22.7-0.01,19.95,20.06,23.96,41.48
		c4.32,23.05-1.7,41.52-25.61,41.52c-7.84,0-15.06,1.39-19.11-0.98c-0.05-0.02-0.47-0.25-0.52-0.27
		c-11.44-4.71-20.77-29.44-40.9-21.05c-2.3-1.28-17.84,6.84-19.68,6.51c-6.77,4.34-16.11-6.67-32.08-5.21
		c-52.79,4.84-39.33-8.13-49.65-35.13C23.3,74.52,16.05,65.21,19.07,57.43"/>
	<path class="st0" d="M19.3,58.71C30.97,31,49.22,25.64,77.81,22.98c11.98-1.12,37.45,4.82,49.19,24.21l13.31,12.22
		c0.44,0.64,3.97,3.68,4.34,3.85c9.11,6.41,8.62,2.63,24.02-2.07c1.66-0.24,13.93-4.43,21.74-4.43
		c22.72,0.05,21.06,19.78,24.38,41.48c3.56,23.24-1.91,41.99-25.82,41.99c-7.84,0-15.08,0.69-19.59-1.95
		c-0.04-0.01-0.49-0.26-0.53-0.28c-11.74-4.91-20.48-31.21-41.34-21.06c-1.84-1.02-18.42,8.32-19.89,8.05
		c-7.53,4.82-15.79-7.22-31.24-6.18c-56.27,3.8-37.73-8.17-48.25-34.62C24.84,75.96,16.29,66.49,19.3,58.71"/>
	<path class="st0" d="M19.54,59.98c11.17-27.04,30.18-32.52,58.61-35.87c12.1-1.42,37.45,4.7,49.19,24.08l13.46,12.08
		c0.33,0.48,4.09,3.7,4.37,3.82c9.65,6.88,8.64,3.11,23.89-1.81c1.25-0.18,14.01-4.72,21.69-4.69c22.74,0.12,22.17,19.51,24.8,41.48
		c2.81,23.44-2.13,42.46-26.03,42.46c-7.84,0-15.11-0.01-20.07-2.91c-0.03-0.01-0.5-0.28-0.54-0.29
		c-12.03-5.11-20.18-32.99-41.79-21.08c-1.38-0.77-19,9.8-20.1,9.59c-8.28,5.3-15.46-7.8-30.39-7.15
		c-59.75,2.57-36.15-8.21-46.86-34.12C26.38,77.39,16.52,67.77,19.54,59.98"/>
	<path class="st0" d="M19.78,61.26c10.68-26.37,30.44-31.99,58.71-36c12.22-1.74,37.45,4.57,49.19,23.96l13.61,11.94
		c0.22,0.32,4.22,3.71,4.41,3.8c10.18,7.35,8.66,3.59,23.75-1.55c0.83-0.12,14.1-5.01,21.64-4.96
		c22.76,0.18,23.33,19.23,25.23,41.48c2.1,23.63-2.34,42.92-26.24,42.92c-7.84,0-15.14-0.71-20.55-3.88
		c-0.02-0.01-0.52-0.3-0.54-0.31c-12.32-5.31-19.88-34.76-42.23-21.09c-0.92-0.51-19.58,11.27-20.31,11.14
		c-9.03,5.78-15.12-8.39-29.55-8.13c-63.2,1.15-34.56-8.24-45.46-33.61C27.92,78.83,16.76,69.05,19.78,61.26"/>
	<path class="st0" d="M20.01,62.54c10.19-25.7,30.7-31.46,58.81-36.14c12.33-2.05,37.45,4.44,49.19,23.83l13.75,11.8
		c0.11,0.16,4.35,3.73,4.44,3.77c10.72,7.83,8.68,4.07,23.62-1.29c0.42-0.06,14.19-5.3,21.59-5.22
		c22.78,0.24,24.43,18.95,25.65,41.48c1.33,23.83-2.55,43.39-26.46,43.39c-7.84,0-15.16-1.41-21.03-4.84
		c-0.01,0-0.54-0.32-0.55-0.32c-12.61-5.51-19.58-36.54-42.68-21.11c-0.46-0.26-20.16,12.75-20.53,12.68
		c-9.79,6.27-14.76-9-28.7-9.1c-66.63-0.49-33.02-8.25-44.06-33.1C29.44,80.28,17,70.33,20.01,62.54"/>
	<path class="st0" d="M20.25,63.82c9.69-25.04,30.96-30.95,58.91-36.27c12.44-2.37,37.45,4.32,49.19,23.7l18.37,15.41
		c11.26,8.3,8.7,4.55,23.49-1.03c0,0,14.27-5.59,21.54-5.49c22.81,0.31,25.54,18.68,26.07,41.48c0.57,24.03-2.76,43.85-26.67,43.85
		c-7.84,0-15.19-2.12-21.5-5.81l-0.56-0.33c-12.9-5.71-19.29-38.31-43.12-21.12l-20.74,14.22c-10.54,6.75-14.39-9.62-27.85-10.07
		c-70.02-2.37-31.41-8.3-42.67-32.59C30.98,81.71,17.23,71.61,20.25,63.82"/>
	<path class="st0" d="M21.43,65.22c9.69-25.04,31.15-31.95,59.17-36.74c13.28-2.27,37.45,4.66,49.19,24.04l17.06,14.31
		c10.99,8.48,10.45,4.91,24.48-0.36c0,0,14.14-5.19,21.15-5.52c22.16-1.04,26.24,19.29,26.63,41.9
		c0.39,23.08-2.86,42.71-26.07,43.09c-7.82,0.13-16.28-2-22.59-5.69l-1.11-0.39c-12.9-5.71-18.62-37.1-42.46-19.91l-20.02,13.71
		c-10.54,6.75-14.18-8.5-27.64-8.93c-67.61-2.22-34.04-8.52-44.66-33.62C31.11,82.98,18.42,73,21.43,65.22"/>
	<path class="st0" d="M22.62,66.61c9.69-25.04,31.35-32.9,59.42-37.21c14.12-2.16,37.45,4.99,49.19,24.38L146.97,67
		c10.72,8.66,12.2,5.26,25.47,0.3c0,0,14.02-4.8,20.75-5.55c21.52-2.41,26.95,19.91,27.18,42.32c0.23,22.13-2.96,41.58-25.48,42.33
		c-7.8,0.26-17.37-1.88-23.68-5.57l-1.66-0.45c-12.9-5.71-17.95-35.89-41.79-18.7l-19.3,13.21c-10.54,6.75-13.97-7.38-27.43-7.79
		c-65.2-2.07-36.7-8.73-46.64-34.65C31.23,84.25,19.6,74.4,22.62,66.61"/>
	<path class="st0" d="M23.8,68.01c9.69-25.04,31.56-33.83,59.67-37.67c14.96-2.04,37.45,5.33,49.19,24.72l14.43,12.11
		c10.45,8.84,13.95,5.61,26.46,0.97c0,0,13.9-4.41,20.36-5.58c20.9-3.79,27.65,20.53,27.73,42.75c0.07,21.17-3.07,40.46-24.89,41.57
		c-7.78,0.39-18.45-1.76-24.77-5.45l-2.22-0.52c-12.9-5.71-17.28-34.67-41.12-17.48l-18.58,12.7c-10.54,6.75-13.76-6.27-27.22-6.65
		c-62.78-1.92-39.36-8.93-48.63-35.68C31.34,85.52,20.79,75.8,23.8,68.01"/>
	<path class="st0" d="M24.99,69.41c9.69-25.04,31.78-34.73,59.93-38.14c15.81-1.91,37.45,5.67,49.19,25.06l13.12,11.01
		c10.18,9.03,15.7,5.96,27.45,1.64c0,0,13.78-4.03,19.96-5.61c20.29-5.2,28.37,21.14,28.28,43.17c-0.08,20.22-3.17,39.36-24.3,40.8
		c-7.76,0.53-19.54-1.64-25.86-5.33l-2.77-0.58c-12.9-5.71-16.62-33.46-40.45-16.27l-17.86,12.19c-10.54,6.75-13.54-5.15-27.01-5.5
		c-60.37-1.77-42.05-9.12-50.62-36.71C31.45,86.8,21.97,77.2,24.99,69.41"/>
	<path class="st0" d="M26.17,70.81c9.69-25.04,32-35.6,60.18-38.6c16.66-1.77,37.45,6.01,49.19,25.4l11.81,9.9
		c9.9,9.21,17.45,6.31,28.44,2.3c0,0,13.67-3.66,19.56-5.64c19.69-6.62,29.09,21.76,28.83,43.6c-0.23,19.26-3.28,38.27-23.7,40.04
		c-7.74,0.67-20.63-1.52-26.95-5.21l-3.32-0.64c-12.9-5.71-15.95-32.25-39.79-15.06l-17.14,11.68c-10.54,6.75-13.33-4.03-26.79-4.36
		c-57.96-1.62-44.75-9.3-52.61-37.74C31.55,88.08,23.16,78.59,26.17,70.81"/>
	<path class="st0" d="M27.36,72.2c9.69-25.04,32.22-36.45,60.44-39.07c17.51-1.62,37.45,6.35,49.19,25.74l10.5,8.8
		c9.63,9.39,19.2,6.67,29.42,2.97c0,0,13.55-3.3,19.17-5.68c19.09-8.08,29.81,22.37,29.38,44.02c-0.37,18.3-3.39,37.19-23.11,39.28
		c-7.72,0.82-21.72-1.4-28.03-5.1l-3.87-0.7c-12.9-5.71-15.28-31.04-39.12-13.85l-16.42,11.17c-10.54,6.75-13.12-2.92-26.58-3.22
		c-55.55-1.47-47.47-9.47-54.6-38.77C31.65,89.37,24.34,79.99,27.36,72.2"/>
	<path class="st0" d="M28.54,73.6c9.69-25.04,32.45-37.29,60.69-39.53c18.36-1.46,37.45,6.69,49.19,26.07l9.19,7.7
		c9.36,9.58,20.94,7.02,30.41,3.63c0,0,13.43-2.94,18.77-5.71c18.48-9.56,30.54,22.98,29.93,44.44
		c-0.5,17.35-3.49,36.13-22.52,38.52c-7.7,0.97-22.81-1.29-29.12-4.98l-4.43-0.76c-12.9-5.71-14.61-29.82-38.45-12.63l-15.7,10.67
		c-10.54,6.75-12.91-1.77-26.37-2.07c-53.13-1.2-50.22-9.63-56.59-39.8C31.74,90.65,25.53,81.39,28.54,73.6"/>
	<path class="st0" d="M29.73,75c9.69-25.04,32.67-38.11,60.94-40c19.21-1.28,37.45,7.03,49.19,26.41l7.87,6.6
		c9.09,9.76,22.69,7.37,31.4,4.3c0,0,13.31-2.6,18.38-5.74c17.86-11.07,31.28,23.6,30.48,44.87c-0.62,16.39-3.6,35.07-21.93,37.76
		c-7.68,1.12-23.9-1.17-30.21-4.86l-4.98-0.82c-12.9-5.71-13.95-28.61-37.78-11.42l-14.98,10.16c-10.54,6.75-12.7-0.65-26.16-0.93
		c-50.72-1.05-52.98-9.79-58.58-40.83C31.82,91.94,26.71,82.78,29.73,75"/>
	<path class="st0" d="M30.92,76.39c9.69-25.04,32.9-38.92,61.2-40.46c20.06-1.1,37.45,7.36,49.19,26.75l6.56,5.5
		c8.82,9.94,24.44,7.72,32.39,4.97c0,0,13.18-2.26,17.98-5.77c17.22-12.6,32.03,24.21,31.03,45.29
		c-0.74,15.43-3.7,34.04-21.33,36.99c-7.66,1.29-24.99-1.05-31.3-4.74l-5.53-0.88c-12.9-5.71-13.28-27.4-37.12-10.21l-14.26,9.65
		c-10.54,6.75-12.48,0.47-25.95,0.21c-48.31-0.91-55.76-9.95-60.57-41.86C31.9,93.23,27.9,84.18,30.92,76.39"/>
	<path class="st0" d="M32.1,77.79c9.69-25.04,33.12-39.71,61.45-40.93c20.91-0.9,37.45,7.7,49.19,27.09l5.25,4.4
		c8.55,10.12,26.19,8.07,33.38,5.63c0,0,13.05-1.92,17.58-5.8c16.55-14.16,32.79,24.83,31.58,45.71
		c-0.84,14.48-3.8,33.01-20.74,36.23c-7.64,1.45-26.07-0.93-32.39-4.62l-6.09-0.94c-12.9-5.71-12.61-26.19-36.45-9l-13.55,9.14
		c-10.54,6.75-12.27,1.55-25.74,1.35c-45.89-0.86-58.57-10.11-62.56-42.89C31.97,94.51,29.09,85.58,32.1,77.79"/>
	<path class="st0" d="M33.29,79.19c9.69-25.04,33.35-40.49,61.71-41.4c21.77-0.69,37.45,8.04,49.19,27.43l3.94,3.3
		c8.28,10.31,27.94,8.43,34.37,6.3c0,0,12.91-1.59,17.19-5.83c15.86-15.72,33.57,25.44,32.13,46.14c-0.94,13.52-3.89,32-20.15,35.47
		c-7.62,1.63-27.16-0.81-33.48-4.5l-6.64-1c-12.9-5.71-11.94-24.98-35.78-7.78l-12.83,8.63c-10.54,6.75-12.06,2.67-25.52,2.5
		c-43.48-0.71-61.39-10.27-64.55-43.92C32.04,95.8,30.27,86.97,33.29,79.19"/>
	<path class="st0" d="M34.47,80.58c9.69-25.04,33.57-41.27,61.96-41.86c22.62-0.47,37.45,8.38,49.19,27.77l2.62,2.2
		c8.01,10.49,29.69,8.78,35.36,6.96c0,0,12.76-1.26,16.79-5.86c15.14-17.29,34.36,26.06,32.68,46.56
		c-1.03,12.57-3.99,31-19.56,34.71c-7.59,1.81-28.25-0.69-34.56-4.39l-7.19-1.06c-12.9-5.71-11.28-23.76-35.11-6.57l-12.11,8.13
		c-10.54,6.75-11.85,3.79-25.31,3.64c-41.07-0.56-64.24-10.44-66.53-44.95C32.11,97.09,31.46,88.37,34.47,80.58"/>
	<path class="st0" d="M35.66,81.98c9.69-25.04,33.79-42.03,62.21-42.33c23.47-0.24,37.45,8.72,49.19,28.11l1.31,1.1
		c7.74,10.67,31.44,9.13,36.34,7.63c0,0,12.61-0.93,16.4-5.89c14.39-18.86,35.17,26.68,33.23,46.98
		c-1.11,11.62-4.07,30.01-18.96,33.95c-7.56,2-29.34-0.58-35.65-4.27l-7.74-1.12c-12.9-5.71-10.61-22.55-34.45-5.36l-11.39,7.62
		c-10.54,6.75-11.64,4.91-25.1,4.78c-38.65-0.41-67.1-10.6-68.52-45.98C32.17,98.37,32.64,89.77,35.66,81.98"/>
	<path class="st0" d="M36.84,83.38c9.69-25.04,34.01-42.79,62.47-42.79c24.31,0,37.45,9.06,49.19,28.44l0,0
		c7.46,10.86,33.19,9.48,37.33,8.3c0,0,12.44-0.59,16-5.93c13.62-20.43,36.01,27.3,33.78,47.41c-1.19,10.67-4.15,29.04-18.37,33.19
		c-7.53,2.2-30.43-0.46-36.74-4.15l-8.3-1.19c-12.9-5.71-9.94-21.34-33.78-4.15l-10.67,7.11c-10.54,6.75-11.42,6.02-24.89,5.93
		c-36.24-0.26-69.99-10.77-70.51-47.01C32.22,99.66,33.83,91.16,36.84,83.38"/>
</g>
<path class="st1" d="M-554.91-88.29c16.36-42.25,57.39-72.21,105.41-72.21c41.03,0,76.95,21.87,96.75,54.58l0.65,1.1
	c12.6,18.32,25.28,29.01,50.24,19.59c0,0,24.08-9.43,36.36-9.26c38.48,0.52,70.08,31.78,70.98,70.26
	c0.95,40.56-31.64,73.74-71.98,73.74c-13.23,0-25.63-3.57-36.29-9.8l-0.94-0.56c-21.77-9.64-44.32-20.66-84.55,8.35l-0.37,0.24
	c-17.78,11.39-38.97,17.93-61.69,17.77c-61.15-0.44-111.27-50.18-112.15-111.33C-562.7-60.82-560-75.15-554.91-88.29"/>
<text transform="matrix(1 0 0 1 255.5161 135.2881)"><tspan x="0" y="0" class="st2 st3 st4 st5">NIMBUS </tspan><tspan x="325.81" y="0" class="st2 st6 st4 st5">HOTEL</tspan></text>
</svg>
